Coordinates
version=1
nRows=46
nColumns=14
inDegrees=yes

Units are S.I. units (second, meters, Newtons, ...)
Angles are in degrees.

endheader
time	pelvis_tilt	pelvis_list	pelvis_rotation	pelvis_tx	pelvis_ty	pelvis_tz	hip_flexion_r	hip_adduction_r	hip_rotation_r	knee_angle_r	ankle_angle_r	subtalar_angle_r	mtp_angle_r
      0.00000000	    -14.72961849	     -2.05565461	      9.26745927	     -0.74874241	      0.83696727	      0.04300196	     42.56897600	     -0.26632403	    -14.01617031	     -9.82314871	     -2.61597917	     -0.10862388	      0.00000000
      0.01000000	    -14.48800126	     -2.18950127	      9.13307711	     -0.73147413	      0.83708295	      0.04444327	     41.79030038	      0.28802339	    -12.92766703	    -10.28506129	     -5.28260291	     -1.61384643	      0.00000000
      0.02000000	    -14.44892853	     -2.39724771	      8.81913027	     -0.71448390	      0.83754790	      0.04631301	     41.27571095	      0.94940316	    -11.94237019	    -10.82658513	     -8.38989551	     -2.62745889	      0.00000000
      0.03000000	    -14.55069520	     -2.73024107	      8.35007280	     -0.69780545	      0.83833933	      0.04864610	     41.04807881	      1.74742069	    -11.33543308	    -11.89443341	     -9.61094160	     -2.02365770	      0.00000000
      0.04000000	    -14.60098376	     -3.02125332	      7.75587725	     -0.68124766	      0.83949826	      0.05119668	     40.93367152	      2.55006778	    -10.67905466	    -13.46216157	    -10.07646571	     -1.58747654	      0.00000000
      0.05000000	    -14.49277493	     -3.32990865	      7.16340136	     -0.66461001	      0.84099417	      0.05348698	     40.74915092	      3.30625969	    -10.17069778	    -15.28940542	    -10.13110984	     -2.25241695	      0.00000000
      0.06000000	    -14.30366333	     -3.69407438	      6.60335301	     -0.64847895	      0.84247124	      0.05551045	     40.57263329	      4.04623801	     -9.99307507	    -17.38819867	     -8.89841178	     -2.24947946	      0.00000000
      0.07000000	    -14.04063997	     -3.98855487	      5.93452261	     -0.63280861	      0.84389919	      0.05750508	     40.21138790	      4.82173282	     -9.76558461	    -19.34155306	     -6.87502388	     -1.56291085	      0.00000000
      0.08000000	    -13.74634451	     -4.23489145	      5.17267046	     -0.61763868	      0.84530957	      0.05925756	     39.68545762	      5.59670394	     -9.39534294	    -21.03216193	     -4.86798759	     -0.93029911	      0.00000000
      0.09000000	    -13.46521837	     -4.57595709	      4.37006397	     -0.60303572	      0.84653498	      0.06088850	     39.01170414	      6.46491146	     -9.17378877	    -22.29142240	     -3.29665505	     -0.70941830	      0.00000000
      0.10000000	    -13.22080894	     -4.99600866	      3.55758300	     -0.58896955	      0.84761893	      0.06247829	     38.15237716	      7.40924312	     -9.11315972	    -23.07944418	     -1.76787990	     -0.11609628	      0.00000000
      0.11000000	    -13.05311776	     -5.44648025	      2.77103621	     -0.57536468	      0.84863715	      0.06420961	     37.15526194	      8.40562885	     -9.04322070	    -23.40456110	     -0.43249633	      0.41052462	      0.00000000
      0.12000000	    -12.95012735	     -5.83426010	      2.06024952	     -0.56205262	      0.84968953	      0.06602428	     36.06588133	      9.32629656	     -8.93990436	    -23.39644625	      0.71513851	      0.62038310	      0.00000000
      0.13000000	    -12.87928093	     -6.08508392	      1.48083003	     -0.54902511	      0.85093404	      0.06782029	     34.87764253	     10.09173953	     -8.71296151	    -23.14650798	      1.77015800	      0.70107056	      0.00000000
      0.14000000	    -12.86399450	     -6.23535102	      1.04000594	     -0.53624415	      0.85235246	      0.06972721	     33.65268008	     10.74683191	     -8.31114808	    -22.70014385	      2.53826502	      0.40139958	      0.00000000
      0.15000000	    -12.92480001	     -6.21185851	      0.75212963	     -0.52365385	      0.85401101	      0.07157376	     32.46936575	     11.16487080	     -7.84240659	    -22.17471110	      3.16227439	     -0.00445122	      0.00000000
      0.16000000	    -13.08892392	     -6.10075049	      0.60230493	     -0.51107200	      0.85593839	      0.07334133	     31.41416752	     11.40564827	     -7.45247457	    -21.72161264	      3.59574393	     -0.31090718	      0.00000000
      0.17000000	    -13.33839794	     -5.92415863	      0.53258442	     -0.49855795	      0.85810894	      0.07493976	     30.47963776	     11.51007589	     -7.11273760	    -21.36652854	      3.80079740	     -0.50208148	      0.00000000
      0.18000000	    -13.51281604	     -5.56294793	      0.55524621	     -0.48599673	      0.86041134	      0.07623113	     29.36407397	     11.34435490	     -6.88826273	    -20.77373499	      4.30253961	     -0.48489761	      0.00000000
      0.19000000	    -13.61946526	     -5.11989437	      0.61844884	     -0.47341504	      0.86283786	      0.07731651	     28.13284296	     11.03820020	     -6.78880644	    -20.07063284	      4.88339089	     -0.27383014	      0.00000000
      0.20000000	    -13.69332095	     -4.62194006	      0.65199825	     -0.46076954	      0.86531470	      0.07823020	     26.81231693	     10.68388351	     -6.59073752	    -19.26335867	      5.35911369	     -0.14752174	      0.00000000
      0.21000000	    -13.74685554	     -4.13576438	      0.66133857	     -0.44808933	      0.86778671	      0.07894371	     25.38284506	     10.35754198	     -6.25595354	    -18.28280501	      5.64038527	     -0.19592164	      0.00000000
      0.22000000	    -13.79787379	     -3.64295320	      0.64853093	     -0.43537928	      0.87008272	      0.07951571	     23.90653433	     10.04539694	     -5.71601803	    -17.21568436	      5.79715151	     -0.46252195	      0.00000000
      0.23000000	    -13.86898228	     -3.18233338	      0.61669925	     -0.42266181	      0.87213281	      0.07994354	     22.39869856	      9.78282124	     -4.97195707	    -16.04645835	      5.72753157	     -1.06365836	      0.00000000
      0.24000000	    -13.98111946	     -2.81257714	      0.54884112	     -0.40999688	      0.87390978	      0.08030661	     20.93708745	      9.62194809	     -4.19080684	    -14.86949553	      5.39182067	     -1.89499434	      0.00000000
      0.25000000	    -14.13393776	     -2.49213102	      0.44304145	     -0.39730101	      0.87531014	      0.08063236	     19.53667148	      9.48751684	     -3.42145990	    -13.72347745	      5.10714619	     -2.61631468	      0.00000000
      0.26000000	    -14.32773100	     -2.21269566	      0.29915639	     -0.38466720	      0.87633726	      0.08088120	     18.28158185	      9.36962091	     -2.72307687	    -12.72982710	      4.85692633	     -3.28670473	      0.00000000
      0.27000000	    -14.52429265	     -1.93059838	      0.14894360	     -0.37205431	      0.87696908	      0.08100843	     17.08994503	      9.19961099	     -2.54300007	    -11.67595982	      4.87494319	     -3.69514790	      0.00000000
      0.28000000	    -14.72971717	     -1.73007315	      0.00466801	     -0.35947038	      0.87727073	      0.08102421	     15.92616775	      9.08834818	     -2.24084035	    -10.76346820	      4.87793726	     -3.98207700	      0.00000000
      0.29000000	    -14.95022048	     -1.56441998	     -0.15290878	     -0.34694538	      0.87718612	      0.08096581	     14.80825232	      8.99060931	     -1.92341133	     -9.92365462	      4.95196678	     -4.22826076	      0.00000000
      0.30000000	    -15.13853238	     -1.39126781	     -0.28679500	     -0.33437392	      0.87665501	      0.08076439	     13.65785354	      8.86229196	     -1.70596381	     -9.07567328	      5.17842947	     -4.44441377	      0.00000000
      0.31000000	    -15.23718422	     -1.29384416	     -0.39368429	     -0.32167630	      0.87595110	      0.08046462	     12.40869684	      8.80099273	     -1.70796468	     -8.22593382	      5.46319028	     -4.50978915	      0.00000000
      0.32000000	    -15.24091613	     -1.22348437	     -0.45786828	     -0.30881996	      0.87504532	      0.07998357	     11.09059742	      8.74369627	     -1.86970162	     -7.47001732	      5.85225848	     -4.44310492	      0.00000000
      0.33000000	    -15.13771927	     -1.18551058	     -0.51646399	     -0.29579026	      0.87386773	      0.07943361	      9.66078020	      8.70259469	     -1.98133335	     -6.74608584	      6.21808800	     -4.43473652	      0.00000000
      0.34000000	    -14.99613023	     -1.13650244	     -0.66112852	     -0.28275289	      0.87239829	      0.07901828	      8.26519812	      8.67049714	     -2.01736381	     -6.18673765	      6.63152830	     -4.45670094	      0.00000000
      0.35000000	    -14.76508246	     -1.11339431	     -0.84198776	     -0.26952681	      0.87078503	      0.07865915	      6.82744237	      8.68148793	     -2.03677151	     -5.77953793	      7.05532801	     -4.52409933	      0.00000000
      0.36000000	    -14.51224240	     -1.13705223	     -1.07480796	     -0.25627528	      0.86893645	      0.07830804	      5.43122765	      8.74157287	     -1.85752666	     -5.53076674	      7.37603234	     -4.81676920	      0.00000000
      0.37000000	    -14.25636487	     -1.19910931	     -1.36328154	     -0.24292467	      0.86692282	      0.07812837	      4.05028245	      8.84843391	     -1.38183913	     -5.36316492	      7.52926899	     -5.36943222	      0.00000000
      0.38000000	    -14.06767485	     -1.30858661	     -1.75452903	     -0.22915130	      0.86463304	      0.07807764	      2.72545875	      9.00588203	     -0.63406989	     -5.24743849	      7.52270302	     -6.19074151	      0.00000000
      0.39000000	    -13.96499730	     -1.41711407	     -2.23465666	     -0.21515160	      0.86210287	      0.07788565	      1.58950073	      9.09746199	      0.07837408	     -5.38114026	      7.73542373	     -6.54461499	      0.00000000
      0.40000000	    -13.90381705	     -1.54189225	     -2.62339614	     -0.20096221	      0.85952024	      0.07742005	      0.54563139	      9.15127672	      0.64544626	     -5.63050130	      7.94156985	     -6.47806739	      0.00000000
      0.41000000	    -13.98132555	     -1.64453105	     -3.08199880	     -0.18695575	      0.85694777	      0.07696012	     -0.21302174	      9.14593911	      1.12672829	     -6.07630359	      8.20977951	     -6.28297012	      0.00000000
      0.42000000	    -14.25672320	     -1.64738846	     -3.72579467	     -0.17331474	      0.85426682	      0.07685521	     -0.57742853	      9.03477832	      1.67792545	     -6.81596509	      8.56020113	     -5.88127669	      0.00000000
      0.43000000	    -14.50408902	     -1.66262190	     -4.26876744	     -0.15927675	      0.85171603	      0.07639242	     -0.92896456	      8.86448472	      1.82984143	     -7.67535380	      9.08095112	     -5.19733791	      0.00000000
      0.44000000	    -14.73095872	     -1.66455613	     -4.82102407	     -0.14503241	      0.84927907	      0.07583398	     -1.25505361	      8.64570403	      1.90929787	     -8.62173669	      9.54381499	     -4.18011710	      0.00000000
      0.45000000	    -14.92349221	     -1.67084592	     -5.31774552	     -0.13071824	      0.84691811	      0.07520338	     -1.52014017	      8.42448260	      1.85776451	     -9.68573005	      9.88105390	     -1.85943042	      0.00000000
